<?xml version="1.0" encoding="UTF-8"?>
<svg width="200px" height="54px" viewBox="0 0 200 54" version="1.1" xmlns="http://www.w3.org/2000/svg" xmlns:xlink="http://www.w3.org/1999/xlink">
    <!-- Generator: Sketch 47.1 (45422) - http://www.bohemiancoding.com/sketch -->
    <title>Group</title>
    <desc>Created with Sketch.</desc>
    <defs></defs>
    <g id="Symbols" stroke="none" stroke-width="1" fill="none" fill-rule="evenodd">
        <g id="nav" transform="translate(-56.000000, -46.000000)">
            <g id="Group">
                <g transform="translate(56.000000, 46.000000)">
                    <polygon id="Fill-2" fill="#CEAF70" points="0.591372758 0.193568627 2.22611347 0.193568627 2.22611347 24.9433725 17.2784662 24.9433725 17.2784662 26.3342222 0.591372758 26.3342222"></polygon>
                    <path d="M37.3449084,16.5589542 L31.6583461,1.76784314 L31.5851012,1.76784314 L25.6756197,16.5589542 L37.3449084,16.5589542 Z M32.4767779,0.192941176 L42.9571643,26.3346405 L41.2099025,26.3346405 L37.8650532,17.9498039 L25.1554749,17.9498039 L21.7734724,26.3346405 L20.0262106,26.3346405 L30.6923629,0.192941176 L32.4767779,0.192941176 Z" id="Fill-3" fill="#CEAF70"></path>
                    <polygon id="Fill-4" fill="#CEAF70" points="46.0770776 0.193568627 48.121565 0.193568627 64.8819033 24.1747451 64.9562097 24.1747451 64.9562097 0.193568627 66.5920119 0.193568627 66.5920119 26.3342222 64.6589841 26.3342222 47.7871862 2.17108497 47.7118183 2.17108497 47.7118183 26.3342222 46.0770776 26.3342222"></polygon>
                    <g id="Group-43">
                        <path d="M73.763216,24.9433725 L80.8987531,24.9433725 C85.8411899,24.9433725 91.4534458,22.2704314 91.4534458,13.227817 C91.4534458,2.53709804 84.5036748,1.5844183 80.5643743,1.5844183 L73.763216,1.5844183 L73.763216,24.9433725 Z M72.1284753,0.193568627 L80.8244467,0.193568627 C90.3016967,0.193568627 93.0881865,6.60088889 93.0881865,13.227817 C93.0881865,20.6233725 89.2603456,26.3342222 80.7501403,26.3342222 L72.1284753,26.3342222 L72.1284753,0.193568627 Z" id="Fill-5" fill="#CEAF70"></path>
                        <polygon id="Fill-7" fill="#CEAF70" points="97.769171 0.193568627 100.111946 0.193568627 110.479811 24.5407582 110.554117 24.5407582 120.812646 0.193568627 123.153297 0.193568627 123.153297 26.3342222 121.518557 26.3342222 121.518557 2.17108497 121.443189 2.17108497 111.334334 26.3342222 109.698532 26.3342222 99.4782181 2.17108497 99.4039117 2.17108497 99.4039117 26.3342222 97.769171 26.3342222"></polygon>
                        <path d="M144.147933,16.5589542 L138.462432,1.76784314 L138.387064,1.76784314 L132.479705,16.5589542 L144.147933,16.5589542 Z M139.279802,0.192941176 L149.760188,26.3346405 L148.013988,26.3346405 L144.668077,17.9498039 L131.959561,17.9498039 L128.576497,26.3346405 L126.830296,26.3346405 L137.495387,0.192941176 L139.279802,0.192941176 Z" id="Fill-9" fill="#CEAF70"></path>
                        <path d="M164.512768,13.0442876 C168.377762,13.0442876 171.276773,11.2508235 171.276773,7.0395817 C171.276773,3.08559477 168.079475,1.58494118 164.512768,1.58494118 L155.07161,1.58494118 L155.07161,13.0442876 L164.512768,13.0442876 Z M153.436869,0.193045752 L164.512768,0.193045752 C169.157979,0.193045752 172.911514,1.87775163 172.911514,6.92977778 C172.911514,10.444549 170.756628,13.0442876 167.226013,13.6299085 L167.226013,13.7031111 C171.165313,14.1423268 172.131297,16.5956601 172.391369,19.3052026 C172.651441,22.0136993 172.205603,24.9428497 173.284107,26.3347451 L171.462539,26.3347451 C170.459403,24.5402353 171.053854,21.5378824 170.756628,19.0123922 C170.421188,16.4858562 169.157979,14.4351373 164.512768,14.4351373 L155.07161,14.4351373 L155.07161,26.3347451 L153.436869,26.3347451 L153.436869,0.193045752 Z" id="Fill-11" fill="#CEAF70"></path>
                        <polygon id="Fill-13" fill="#CEAF70" points="178.632894 0.193568627 180.267635 0.193568627 180.267635 15.2408889 196.95579 0.193568627 199.073522 0.193568627 186.958395 11.0672941 199.816586 26.3342222 197.772098 26.3342222 185.769492 12.1653333 180.267635 17.1086013 180.267635 26.3342222 178.632894 26.3342222"></polygon>
                        <path d="M7.90800509,52.8595033 C12.2740366,52.8595033 14.8896217,49.5434248 14.9342056,44.9285229 C14.8896217,40.3136209 12.2740366,36.9985882 7.90800509,36.9985882 C3.54197358,36.9985882 0.926388451,40.3136209 0.880743094,44.9285229 C0.926388451,49.5434248 3.54197358,52.8595033 7.90800509,52.8595033 M7.90800509,36.5499608 C12.7740125,36.5499608 15.3895976,40.380549 15.3895976,44.9285229 C15.3895976,49.4764967 12.7740125,53.307085 7.90800509,53.307085 C3.04093617,53.307085 0.42641256,49.4764967 0.42641256,44.9285229 C0.42641256,40.380549 3.04093617,36.5499608 7.90800509,36.5499608" id="Fill-15" fill="#FFFFFF"></path>
                        <polygon id="Fill-17" fill="#FFFFFF" points="27.988247 36.9311373 28.6708044 36.9311373 39.7679338 52.3664314 39.8135792 52.3664314 39.8135792 36.9311373 40.2679097 36.9311373 40.2679097 52.9269542 39.5853524 52.9269542 28.4882229 37.4906144 28.4425776 37.4906144 28.4425776 52.9269542 27.988247 52.9269542"></polygon>
                        <path d="M62.1895703,44.7947712 C64.5546367,44.7947712 66.3284365,43.6956863 66.3284365,41.12 C66.3284365,38.7011765 64.3731168,37.7830065 62.1895703,37.7830065 L56.4138403,37.7830065 L56.4138403,44.7947712 L62.1895703,44.7947712 Z M55.412827,36.930719 L62.1895703,36.930719 C65.0323207,36.930719 67.3294498,37.9618301 67.3294498,41.0530719 C67.3294498,43.204183 66.0099805,44.7947712 63.8497875,45.1534641 L63.8497875,45.1984314 C66.2604992,45.4661438 66.8517658,46.9667974 67.0109938,48.6253595 C67.1702218,50.2828758 66.8974112,52.0752941 67.5566151,52.9254902 L66.4420191,52.9254902 C65.8284606,51.8295425 66.1915004,49.9921569 66.0099805,48.4454902 C65.8051072,46.900915 65.0323207,45.6449673 62.1895703,45.6449673 L56.4138403,45.6449673 L56.4138403,52.9254902 L55.412827,52.9254902 L55.412827,36.930719 Z" id="Fill-19" fill="#FFFFFF"></path>
                        <path d="M62.1895703,44.7947712 C64.5546367,44.7947712 66.3284365,43.6956863 66.3284365,41.12 C66.3284365,38.7011765 64.3731168,37.7830065 62.1895703,37.7830065 L56.4138403,37.7830065 L56.4138403,44.7947712 L62.1895703,44.7947712 Z M55.412827,36.930719 L62.1895703,36.930719 C65.0323207,36.930719 67.3294498,37.9618301 67.3294498,41.0530719 C67.3294498,43.204183 66.0099805,44.7947712 63.8497875,45.1534641 L63.8497875,45.1984314 C66.2604992,45.4661438 66.8517658,46.9667974 67.0109938,48.6253595 C67.1702218,50.2828758 66.8974112,52.0752941 67.5566151,52.9254902 L66.4420191,52.9254902 C65.8284606,51.8295425 66.1915004,49.9921569 66.0099805,48.4454902 C65.8051072,46.900915 65.0323207,45.6449673 62.1895703,45.6449673 L56.4138403,45.6449673 L56.4138403,52.9254902 L55.412827,52.9254902 L55.412827,36.930719 Z" id="Stroke-21" stroke="#939598" stroke-width="0.045"></path>
                        <path d="M87.4090548,52.4560523 C91.6392118,52.4560523 94.1178609,49.0280784 94.1178609,44.928732 C94.1178609,40.8293856 91.6392118,37.4014118 87.4090548,37.4014118 C83.156606,37.4014118 80.6779569,40.8293856 80.6779569,44.928732 C80.6779569,49.0280784 83.156606,52.4560523 87.4090548,52.4560523 M87.4090548,53.3062484 C82.5430474,53.3062484 79.6769436,49.6116078 79.6769436,44.928732 C79.6769436,40.246902 82.5430474,36.5501699 87.4090548,36.5501699 C92.2527703,36.5501699 95.1178126,40.246902 95.1178126,44.928732 C95.1178126,49.6116078 92.2527703,53.3062484 87.4090548,53.3062484" id="Fill-23" fill="#FFFFFF"></path>
                        <path d="M87.4090548,52.4560523 C91.6392118,52.4560523 94.1178609,49.0280784 94.1178609,44.928732 C94.1178609,40.8293856 91.6392118,37.4014118 87.4090548,37.4014118 C83.156606,37.4014118 80.6779569,40.8293856 80.6779569,44.928732 C80.6779569,49.0280784 83.156606,52.4560523 87.4090548,52.4560523 Z M87.4090548,53.3062484 C82.5430474,53.3062484 79.6769436,49.6116078 79.6769436,44.928732 C79.6769436,40.246902 82.5430474,36.5501699 87.4090548,36.5501699 C92.2527703,36.5501699 95.1178126,40.246902 95.1178126,44.928732 C95.1178126,49.6116078 92.2527703,53.3062484 87.4090548,53.3062484 Z" id="Stroke-25" stroke="#939598" stroke-width="0.045"></path>
                        <path d="M108.921924,52.0751895 L114.424843,52.0751895 C117.289886,52.0751895 119.087039,50.8202876 119.087039,48.4464314 C119.087039,45.7128366 116.562745,45.0404183 114.424843,45.0404183 L108.921924,45.0404183 L108.921924,52.0751895 Z M108.921924,44.1891765 L114.424843,44.1891765 C117.131719,44.1891765 118.541418,42.8453856 118.541418,40.8961046 C118.541418,38.5881307 116.585037,37.7818562 114.424843,37.7818562 L108.921924,37.7818562 L108.921924,44.1891765 Z M107.920911,36.9306144 L114.424843,36.9306144 C118.290899,36.9306144 119.54137,39.0147974 119.54137,41.0738824 C119.54137,42.8004183 118.268607,44.2571503 116.380163,44.4809412 L116.42687,44.5259085 C116.85997,44.4579346 120.088052,45.2202876 120.088052,48.4464314 C120.088052,51.3578039 117.813215,52.9264314 114.424843,52.9264314 L107.920911,52.9264314 L107.920911,36.9306144 Z" id="Fill-27" fill="#FFFFFF"></path>
                        <path d="M108.921924,52.0751895 L114.424843,52.0751895 C117.289886,52.0751895 119.087039,50.8202876 119.087039,48.4464314 C119.087039,45.7128366 116.562745,45.0404183 114.424843,45.0404183 L108.921924,45.0404183 L108.921924,52.0751895 Z M108.921924,44.1891765 L114.424843,44.1891765 C117.131719,44.1891765 118.541418,42.8453856 118.541418,40.8961046 C118.541418,38.5881307 116.585037,37.7818562 114.424843,37.7818562 L108.921924,37.7818562 L108.921924,44.1891765 Z M107.920911,36.9306144 L114.424843,36.9306144 C118.290899,36.9306144 119.54137,39.0147974 119.54137,41.0738824 C119.54137,42.8004183 118.268607,44.2571503 116.380163,44.4809412 L116.42687,44.5259085 C116.85997,44.4579346 120.088052,45.2202876 120.088052,48.4464314 C120.088052,51.3578039 117.813215,52.9264314 114.424843,52.9264314 L107.920911,52.9264314 L107.920911,36.9306144 Z" id="Stroke-29" stroke="#939598" stroke-width="0.045"></path>
                        <path d="M143.51049,41.5011765 C143.396907,38.7686275 141.304651,37.4018301 138.302673,37.4018301 C136.459874,37.4018301 133.845351,38.1631373 133.845351,40.8067974 C133.845351,43.3835294 136.620164,43.8091503 139.371624,44.3675817 C142.146437,44.9281046 144.920188,45.6224837 144.920188,48.8036601 C144.920188,52.1186928 141.691045,53.3077124 139.212396,53.3077124 C135.415339,53.3077124 132.32207,51.7620915 132.367715,47.6397386 L133.366605,47.6397386 C133.163855,51.1346405 136.005544,52.4564706 139.212396,52.4564706 C141.168777,52.4564706 143.920236,51.5822222 143.920236,48.8036601 C143.920236,46.0941176 141.144362,45.6224837 138.371672,45.0619608 C135.618089,44.5035294 132.845399,43.8530719 132.845399,40.8067974 C132.845399,37.7364706 135.732733,36.5505882 138.302673,36.5505882 C141.691045,36.5505882 144.352275,37.9843137 144.510442,41.5011765 L143.51049,41.5011765 Z" id="Fill-31" fill="#FFFFFF"></path>
                        <path d="M143.51049,41.5011765 C143.396907,38.7686275 141.304651,37.4018301 138.302673,37.4018301 C136.459874,37.4018301 133.845351,38.1631373 133.845351,40.8067974 C133.845351,43.3835294 136.620164,43.8091503 139.371624,44.3675817 C142.146437,44.9281046 144.920188,45.6224837 144.920188,48.8036601 C144.920188,52.1186928 141.691045,53.3077124 139.212396,53.3077124 C135.415339,53.3077124 132.32207,51.7620915 132.367715,47.6397386 L133.366605,47.6397386 C133.163855,51.1346405 136.005544,52.4564706 139.212396,52.4564706 C141.168777,52.4564706 143.920236,51.5822222 143.920236,48.8036601 C143.920236,46.0941176 141.144362,45.6224837 138.371672,45.0619608 C135.618089,44.5035294 132.845399,43.8530719 132.845399,40.8067974 C132.845399,37.7364706 135.732733,36.5505882 138.302673,36.5505882 C141.691045,36.5505882 144.352275,37.9843137 144.510442,41.5011765 L143.51049,41.5011765 Z" id="Stroke-33" stroke="#939598" stroke-width="0.045"></path>
                        <path d="M164.908821,52.4560523 C169.138978,52.4560523 171.617627,49.0280784 171.617627,44.928732 C171.617627,40.8293856 169.138978,37.4014118 164.908821,37.4014118 C160.656372,37.4014118 158.177723,40.8293856 158.177723,44.928732 C158.177723,49.0280784 160.656372,52.4560523 164.908821,52.4560523 M164.908821,53.3062484 C160.042814,53.3062484 157.17671,49.6116078 157.17671,44.928732 C157.17671,40.246902 160.042814,36.5501699 164.908821,36.5501699 C169.752537,36.5501699 172.61864,40.246902 172.61864,44.928732 C172.61864,49.6116078 169.752537,53.3062484 164.908821,53.3062484" id="Fill-35" fill="#FFFFFF"></path>
                        <path d="M164.908821,52.4560523 C169.138978,52.4560523 171.617627,49.0280784 171.617627,44.928732 C171.617627,40.8293856 169.138978,37.4014118 164.908821,37.4014118 C160.656372,37.4014118 158.177723,40.8293856 158.177723,44.928732 C158.177723,49.0280784 160.656372,52.4560523 164.908821,52.4560523 Z M164.908821,53.3062484 C160.042814,53.3062484 157.17671,49.6116078 157.17671,44.928732 C157.17671,40.246902 160.042814,36.5501699 164.908821,36.5501699 C169.752537,36.5501699 172.61864,40.246902 172.61864,44.928732 C172.61864,49.6116078 169.752537,53.3062484 164.908821,53.3062484 Z" id="Stroke-37" stroke="#939598" stroke-width="0.045"></path>
                        <polygon id="Fill-39" fill="#FFFFFF" points="185.420783 36.9311373 186.672315 36.9311373 196.928721 51.6051242 196.974366 51.6051242 196.974366 36.9311373 197.973256 36.9311373 197.973256 52.9269542 196.790723 52.9269542 186.46638 38.1410719 186.421796 38.1410719 186.421796 52.9269542 185.420783 52.9269542"></polygon>
                        <polygon id="Stroke-41" stroke="#939598" stroke-width="0.045" points="185.420783 36.9311373 186.672315 36.9311373 196.928721 51.6051242 196.974366 51.6051242 196.974366 36.9311373 197.973256 36.9311373 197.973256 52.9269542 196.790723 52.9269542 186.46638 38.1410719 186.421796 38.1410719 186.421796 52.9269542 185.420783 52.9269542"></polygon>
                    </g>
                </g>
            </g>
        </g>
    </g>
</svg>