<?xml version="1.0" encoding="UTF-8"?>
<svg width="375px" height="101px" viewBox="0 0 375 101" version="1.1" xmlns="http://www.w3.org/2000/svg" xmlns:xlink="http://www.w3.org/1999/xlink">
    <!-- Generator: Sketch 47.1 (45422) - http://www.bohemiancoding.com/sketch -->
    <title>wordmark</title>
    <desc>Created with Sketch.</desc>
    <defs></defs>
    <g id="HOME" stroke="none" stroke-width="1" fill="none" fill-rule="evenodd">
        <g transform="translate(-859.000000, -1815.000000)" id="wordmark">
            <g transform="translate(859.433594, 1815.058594)">
                <polygon id="Fill-2" fill="#FFFFFF" points="0.539732463 0.495680883 3.60226439 0.495680883 3.60226439 46.862095 31.801422 46.862095 31.801422 49.4677202 0.539732463 49.4677202"></polygon>
                <path d="M69.3940013,31.1546812 L58.7407653,3.44493511 L58.603548,3.44493511 L47.5326939,31.1546812 L69.3940013,31.1546812 Z M60.2740199,0.494505413 L79.9080314,49.4685038 L76.6347018,49.4685038 L70.3684433,33.7603064 L46.5582519,33.7603064 L40.2223904,49.4685038 L36.9490609,49.4685038 L56.9310873,0.494505413 L60.2740199,0.494505413 Z" id="Fill-3" fill="#FFFFFF"></path>
                <polygon id="Fill-4" fill="#FFFFFF" points="85.7528935 0.495680883 89.583047 0.495680883 120.981954 45.4221443 121.12116 45.4221443 121.12116 0.495680883 124.18568 0.495680883 124.18568 49.4677202 120.564336 49.4677202 88.95662 4.2003705 88.8154254 4.2003705 88.8154254 49.4677202 85.7528935 49.4677202"></polygon>
                <path d="M137.620252,46.862095 L150.988005,46.862095 C160.247193,46.862095 170.761223,41.8545928 170.761223,24.914111 C170.761223,4.88606133 157.741485,3.10130605 150.361578,3.10130605 L137.620252,3.10130605 L137.620252,46.862095 Z M134.55772,0.495680883 L150.848799,0.495680883 C168.60353,0.495680883 173.823755,12.4991887 173.823755,24.914111 C173.823755,38.7689841 166.652657,49.4677202 150.709593,49.4677202 L134.55772,49.4677202 L134.55772,0.495680883 Z" id="Fill-5" fill="#FFFFFF"></path>
                <polygon id="Fill-7" fill="#FFFFFF" points="182.593136 0.495680883 186.982102 0.495680883 206.405316 46.1078351 206.544522 46.1078351 225.762904 0.495680883 230.147893 0.495680883 230.147893 49.4677202 227.085361 49.4677202 227.085361 4.2003705 226.944166 4.2003705 208.006185 49.4677202 204.941664 49.4677202 185.794874 4.2003705 185.655668 4.2003705 185.655668 49.4677202 182.593136 49.4677202"></polygon>
                <path d="M269.479354,31.1546812 L258.828107,3.44493511 L258.686912,3.44493511 L247.620035,31.1546812 L269.479354,31.1546812 Z M260.359373,0.494505413 L279.993384,49.4685038 L276.722043,49.4685038 L270.453796,33.7603064 L246.645593,33.7603064 L240.307743,49.4685038 L237.036402,49.4685038 L257.01644,0.494505413 L260.359373,0.494505413 Z" id="Fill-9" fill="#FFFFFF"></path>
                <path d="M307.630945,24.570286 C314.871645,24.570286 320.302668,21.210401 320.302668,13.3210381 C320.302668,5.91361802 314.312833,3.10228561 307.630945,3.10228561 L289.943829,3.10228561 L289.943829,24.570286 L307.630945,24.570286 Z M286.881297,0.494701325 L307.630945,0.494701325 C316.333308,0.494701325 323.3652,3.65083827 323.3652,13.1153309 C323.3652,19.699922 319.328226,24.570286 312.713952,25.6673914 L312.713952,25.8045295 C320.093859,26.6273585 321.903537,31.2234462 322.390758,36.2995175 C322.877979,41.3736297 322.042743,46.8611155 324.063219,49.4686997 L320.650683,49.4686997 C318.771402,46.1068555 319.88505,40.4822316 319.328226,35.7509648 C318.69981,31.017739 316.333308,27.1759112 307.630945,27.1759112 L289.943829,27.1759112 L289.943829,49.4686997 L286.881297,49.4686997 L286.881297,0.494701325 Z" id="Fill-11" fill="#FFFFFF"></path>
                <polygon id="Fill-13" fill="#FFFFFF" points="334.083664 0.495680883 337.146196 0.495680883 337.146196 28.6854106 368.409874 0.495680883 372.377245 0.495680883 349.680701 20.866576 373.769305 49.4677202 369.939151 49.4677202 347.453406 22.9236485 337.146196 32.184393 337.146196 49.4677202 334.083664 49.4677202"></polygon>
                <path d="M14.2467503,99.1603226 C22.426097,99.1603226 27.3261481,92.9479636 27.4096716,84.3023818 C27.3261481,75.6568 22.426097,69.4464001 14.2467503,69.4464001 C6.06740372,69.4464001 1.16735264,75.6568 1.08184039,84.3023818 C1.16735264,92.9479636 6.06740372,99.1603226 14.2467503,99.1603226 M14.2467503,68.6059391 C23.3627545,68.6059391 28.2628055,75.7821834 28.2628055,84.3023818 C28.2628055,92.8225802 23.3627545,99.9988245 14.2467503,99.9988245 C5.12875757,99.9988245 0.230695151,92.8225802 0.230695151,84.3023818 C0.230695151,75.7821834 5.12875757,68.6059391 14.2467503,68.6059391" id="Fill-15" fill="#FFFFFF"></path>
                <polygon id="Fill-17" fill="#FFFFFF" points="51.8651823 69.3200371 53.1438888 69.3200371 73.93331 98.2365991 74.0188223 98.2365991 74.0188223 69.3200371 74.8699675 69.3200371 74.8699675 99.2866856 73.591261 99.2866856 52.8018397 70.3681645 52.7163275 70.3681645 52.7163275 99.2866856 51.8651823 99.2866856"></polygon>
                <path d="M115.938123,84.0518108 C120.368851,84.0518108 123.691897,81.9927792 123.691897,77.1674748 C123.691897,72.636038 120.028791,70.9159335 115.938123,70.9159335 L105.11784,70.9159335 L105.11784,84.0518108 L115.938123,84.0518108 Z M103.242536,69.3192535 L115.938123,69.3192535 C121.263747,69.3192535 125.567201,71.2509425 125.567201,77.0420913 C125.567201,81.0719943 123.0953,84.0518108 119.048383,84.7237878 L119.048383,84.8080298 C123.564623,85.3095637 124.672305,88.1208961 124.970603,91.2280551 C125.268902,94.333255 124.757817,97.691181 125.992773,99.2839429 L123.904683,99.2839429 C122.755239,97.2307886 123.43536,93.7886206 123.0953,90.8910871 C122.711489,87.9974717 121.263747,85.6445726 115.938123,85.6445726 L105.11784,85.6445726 L105.11784,99.2839429 L103.242536,99.2839429 L103.242536,69.3192535 Z" id="Fill-19" fill="#FFFFFF"></path>
                <path d="M115.938123,84.0518108 C120.368851,84.0518108 123.691897,81.9927792 123.691897,77.1674748 C123.691897,72.636038 120.028791,70.9159335 115.938123,70.9159335 L105.11784,70.9159335 L105.11784,84.0518108 L115.938123,84.0518108 Z M103.242536,69.3192535 L115.938123,69.3192535 C121.263747,69.3192535 125.567201,71.2509425 125.567201,77.0420913 C125.567201,81.0719943 123.0953,84.0518108 119.048383,84.7237878 L119.048383,84.8080298 C123.564623,85.3095637 124.672305,88.1208961 124.970603,91.2280551 C125.268902,94.333255 124.757817,97.691181 125.992773,99.2839429 L123.904683,99.2839429 C122.755239,97.2307886 123.43536,93.7886206 123.0953,90.8910871 C122.711489,87.9974717 121.263747,85.6445726 115.938123,85.6445726 L105.11784,85.6445726 L105.11784,99.2839429 L103.242536,99.2839429 L103.242536,69.3192535 Z" id="Stroke-21" stroke="#939598" stroke-width="0.045"></path>
                <path d="M163.184439,98.4044954 C171.109238,98.4044954 175.752752,91.982511 175.752752,84.3027736 C175.752752,76.6230363 171.109238,70.2010519 163.184439,70.2010519 C155.217879,70.2010519 150.574365,76.6230363 150.574365,84.3027736 C150.574365,91.982511 155.217879,98.4044954 163.184439,98.4044954 M163.184439,99.9972572 C154.068435,99.9972572 148.699061,93.0756981 148.699061,84.3027736 C148.699061,75.5318083 154.068435,68.6063309 163.184439,68.6063309 C172.258682,68.6063309 177.626067,75.5318083 177.626067,84.3027736 C177.626067,93.0756981 172.258682,99.9972572 163.184439,99.9972572" id="Fill-23" fill="#FFFFFF"></path>
                <path d="M163.184439,98.4044954 C171.109238,98.4044954 175.752752,91.982511 175.752752,84.3027736 C175.752752,76.6230363 171.109238,70.2010519 163.184439,70.2010519 C155.217879,70.2010519 150.574365,76.6230363 150.574365,84.3027736 C150.574365,91.982511 155.217879,98.4044954 163.184439,98.4044954 Z M163.184439,99.9972572 C154.068435,99.9972572 148.699061,93.0756981 148.699061,84.3027736 C148.699061,75.5318083 154.068435,68.6063309 163.184439,68.6063309 C172.258682,68.6063309 177.626067,75.5318083 177.626067,84.3027736 C177.626067,93.0756981 172.258682,99.9972572 163.184439,99.9972572 Z" id="Stroke-25" stroke="#939598" stroke-width="0.045"></path>
                <path d="M203.486763,97.6909851 L213.795961,97.6909851 C219.163347,97.6909851 222.530143,95.3400451 222.530143,90.8928503 C222.530143,85.7717193 217.801117,84.5120073 213.795961,84.5120073 L203.486763,84.5120073 L203.486763,97.6909851 Z M203.486763,82.9172863 L213.795961,82.9172863 C218.867037,82.9172863 221.507973,80.3998214 221.507973,76.7480279 C221.507973,72.4242575 217.842878,70.9137785 213.795961,70.9137785 L203.486763,70.9137785 L203.486763,82.9172863 Z M201.611459,69.3190575 L213.795961,69.3190575 C221.03865,69.3190575 223.381288,73.2235771 223.381288,77.0810778 C223.381288,80.3155794 220.996888,83.0446289 217.459068,83.4638799 L217.546568,83.5481219 C218.357941,83.4207793 224.405447,84.8489754 224.405447,90.8928503 C224.405447,96.3470311 220.143755,99.2857061 213.795961,99.2857061 L201.611459,99.2857061 L201.611459,69.3190575 Z" id="Fill-27" fill="#FFFFFF"></path>
                <path d="M203.486763,97.6909851 L213.795961,97.6909851 C219.163347,97.6909851 222.530143,95.3400451 222.530143,90.8928503 C222.530143,85.7717193 217.801117,84.5120073 213.795961,84.5120073 L203.486763,84.5120073 L203.486763,97.6909851 Z M203.486763,82.9172863 L213.795961,82.9172863 C218.867037,82.9172863 221.507973,80.3998214 221.507973,76.7480279 C221.507973,72.4242575 217.842878,70.9137785 213.795961,70.9137785 L203.486763,70.9137785 L203.486763,82.9172863 Z M201.611459,69.3190575 L213.795961,69.3190575 C221.03865,69.3190575 223.381288,73.2235771 223.381288,77.0810778 C223.381288,80.3155794 220.996888,83.0446289 217.459068,83.4638799 L217.546568,83.5481219 C218.357941,83.4207793 224.405447,84.8489754 224.405447,90.8928503 C224.405447,96.3470311 220.143755,99.2857061 213.795961,99.2857061 L201.611459,99.2857061 L201.611459,69.3190575 Z" id="Stroke-29" stroke="#939598" stroke-width="0.045"></path>
                <path d="M268.285166,77.8815728 C268.072379,72.762401 264.152736,70.2018355 258.528814,70.2018355 C255.076505,70.2018355 250.178443,71.6280724 250.178443,76.5807194 C250.178443,81.4079828 255.376792,82.2053433 260.531391,83.2515116 C265.729741,84.3015982 270.926102,85.6024516 270.926102,91.5620845 C270.926102,97.7724844 264.876607,100 260.233093,100 C253.119667,100 247.32472,97.1044256 247.410232,89.3815877 L249.281558,89.3815877 C248.901725,95.9289556 254.22536,98.405279 260.233093,98.405279 C263.898188,98.405279 269.052787,96.7674575 269.052787,91.5620845 C269.052787,86.4860132 263.852449,85.6024516 258.658077,84.5523651 C253.4995,83.5061968 248.305128,82.2876262 248.305128,76.5807194 C248.305128,70.8287528 253.714275,68.6071145 258.528814,68.6071145 C264.876607,68.6071145 269.862171,71.2930635 270.15848,77.8815728 L268.285166,77.8815728 Z" id="Fill-31" fill="#FFFFFF"></path>
                <path d="M268.285166,77.8815728 C268.072379,72.762401 264.152736,70.2018355 258.528814,70.2018355 C255.076505,70.2018355 250.178443,71.6280724 250.178443,76.5807194 C250.178443,81.4079828 255.376792,82.2053433 260.531391,83.2515116 C265.729741,84.3015982 270.926102,85.6024516 270.926102,91.5620845 C270.926102,97.7724844 264.876607,100 260.233093,100 C253.119667,100 247.32472,97.1044256 247.410232,89.3815877 L249.281558,89.3815877 C248.901725,95.9289556 254.22536,98.405279 260.233093,98.405279 C263.898188,98.405279 269.052787,96.7674575 269.052787,91.5620845 C269.052787,86.4860132 263.852449,85.6024516 258.658077,84.5523651 C253.4995,83.5061968 248.305128,82.2876262 248.305128,76.5807194 C248.305128,70.8287528 253.714275,68.6071145 258.528814,68.6071145 C264.876607,68.6071145 269.862171,71.2930635 270.15848,77.8815728 L268.285166,77.8815728 Z" id="Stroke-33" stroke="#939598" stroke-width="0.045"></path>
                <path d="M308.372913,98.4044954 C316.297711,98.4044954 320.941226,91.982511 320.941226,84.3027736 C320.941226,76.6230363 316.297711,70.2010519 308.372913,70.2010519 C300.406353,70.2010519 295.762838,76.6230363 295.762838,84.3027736 C295.762838,91.982511 300.406353,98.4044954 308.372913,98.4044954 M308.372913,99.9972572 C299.256909,99.9972572 293.887535,93.0756981 293.887535,84.3027736 C293.887535,75.5318083 299.256909,68.6063309 308.372913,68.6063309 C317.447155,68.6063309 322.816529,75.5318083 322.816529,84.3027736 C322.816529,93.0756981 317.447155,99.9972572 308.372913,99.9972572" id="Fill-35" fill="#FFFFFF"></path>
                <path d="M308.372913,98.4044954 C316.297711,98.4044954 320.941226,91.982511 320.941226,84.3027736 C320.941226,76.6230363 316.297711,70.2010519 308.372913,70.2010519 C300.406353,70.2010519 295.762838,76.6230363 295.762838,84.3027736 C295.762838,91.982511 300.406353,98.4044954 308.372913,98.4044954 Z M308.372913,99.9972572 C299.256909,99.9972572 293.887535,93.0756981 293.887535,84.3027736 C293.887535,75.5318083 299.256909,68.6063309 308.372913,68.6063309 C317.447155,68.6063309 322.816529,75.5318083 322.816529,84.3027736 C322.816529,93.0756981 317.447155,99.9972572 308.372913,99.9972572 Z" id="Stroke-37" stroke="#939598" stroke-width="0.045"></path>
                <polygon id="Fill-39" fill="#FFFFFF" points="346.800132 69.3200371 349.144758 69.3200371 368.359163 96.8103622 368.444675 96.8103622 368.444675 69.3200371 370.316002 69.3200371 370.316002 99.2866856 368.100638 99.2866856 348.758959 71.5867351 348.675435 71.5867351 348.675435 99.2866856 346.800132 99.2866856"></polygon>
                <polygon id="Stroke-41" stroke="#939598" stroke-width="0.045" points="346.800132 69.3200371 349.144758 69.3200371 368.359163 96.8103622 368.444675 96.8103622 368.444675 69.3200371 370.316002 69.3200371 370.316002 99.2866856 368.100638 99.2866856 348.758959 71.5867351 348.675435 71.5867351 348.675435 99.2866856 346.800132 99.2866856"></polygon>
            </g>
        </g>
    </g>
</svg>